<svg width="149" height="127" viewBox="0 0 149 127" fill="none" xmlns="http://www.w3.org/2000/svg">
<path opacity="0.3" d="M144.87 127L136.906 118.639L148.129 115.922L144.87 127ZM1.87012 1C2.84711 0.786687 2.84711 0.786694 2.84715 0.786919C2.84724 0.787285 2.84734 0.787728 2.84749 0.78846C2.84781 0.789923 2.84833 0.792256 2.84903 0.795454C2.85043 0.801849 2.85262 0.811702 2.85556 0.824967C2.86145 0.851497 2.87042 0.891672 2.88249 0.945123C2.90663 1.05202 2.94318 1.21202 2.99229 1.42215C3.09052 1.84241 3.23903 2.46315 3.43918 3.26065C3.83948 4.85576 4.44621 7.15746 5.2702 9.97617C6.91862 15.6151 9.43431 23.3155 12.9029 31.5634C19.8647 48.1178 30.5699 66.6429 45.6136 75.33L44.6135 77.062C28.9618 68.0238 18.0453 48.9509 11.0593 32.3387C7.55389 24.0032 5.0141 16.2281 3.35054 10.5373C2.51854 7.69122 1.90514 5.36454 1.49933 3.74748C1.2964 2.9389 1.14536 2.3076 1.04478 1.87735C0.994492 1.66223 0.956833 1.49735 0.931625 1.38569C0.919006 1.32986 0.909515 1.28733 0.903107 1.25848C0.899902 1.24405 0.897476 1.23304 0.895813 1.2255C0.894989 1.22173 0.894348 1.21882 0.893906 1.21679C0.893677 1.21577 0.893494 1.2149 0.893372 1.2144C0.893234 1.21374 0.893143 1.21331 1.87012 1ZM45.6136 75.33C52.6093 79.3697 61.3492 81.8134 70.815 83.7476C75.5417 84.7134 80.425 85.5478 85.3447 86.3937C90.2584 87.2387 95.2069 88.0949 100.035 89.1013C119.273 93.1107 137.076 99.5842 143.692 117.908L141.811 118.587C135.595 101.373 118.861 95.0678 99.6274 91.0592C94.8384 90.0611 89.9236 89.2104 85.0058 88.3648C80.094 87.5202 75.1779 86.6804 70.4146 85.7071C60.9006 83.7631 51.8991 81.2691 44.6135 77.062L45.6136 75.33Z" fill="#004F75"/>
</svg>
