<svg width="255" height="106" viewBox="0 0 255 106" fill="none" xmlns="http://www.w3.org/2000/svg">
<path d="M1 106L10.5607 99.5249L0.172753 94.4827L1 106ZM254 1C253.186 0.41965 253.186 0.419687 253.185 0.419926C253.185 0.420277 253.185 0.420719 253.184 0.421419C253.183 0.422819 253.182 0.425028 253.18 0.42804C253.175 0.434064 253.169 0.443301 253.16 0.455707C253.142 0.480519 253.115 0.518008 253.079 0.567824C253.007 0.667458 252.899 0.816398 252.755 1.01186C252.469 1.40278 252.041 1.97974 251.48 2.72041C250.359 4.20182 248.705 6.33783 246.581 8.94992C242.331 14.1749 236.2 21.3006 228.678 28.9008C213.613 44.1233 193.059 61.1553 170.933 68.7147L171.58 70.6073C194.149 62.8966 214.967 45.5981 230.1 30.3076C237.677 22.6513 243.851 15.475 248.132 10.2119C250.273 7.58003 251.941 5.42557 253.075 3.92752C253.642 3.17846 254.076 2.59344 254.368 2.19481C254.514 1.99549 254.625 1.84277 254.7 1.73943C254.737 1.68776 254.766 1.64843 254.785 1.6218C254.794 1.60849 254.801 1.59835 254.806 1.59142C254.809 1.58796 254.811 1.58531 254.812 1.58346C254.813 1.58253 254.813 1.58176 254.814 1.58129C254.814 1.58072 254.814 1.58035 254 1ZM170.933 68.7147C160.748 72.1942 146.73 73.9149 130.983 74.9703C115.233 76.0259 97.9261 76.4085 81.0875 77.2574C64.2914 78.1042 48.0115 79.4139 34.4926 82.3303C21.0191 85.237 10.0567 89.7847 4.14359 97.2866L5.71432 98.5247C11.1682 91.6054 21.5202 87.1749 34.9144 84.2853C48.2632 81.4056 64.4042 80.1011 81.1882 79.2549C97.9297 78.4108 115.362 78.0217 131.116 76.9658C146.874 75.9098 161.124 74.1794 171.58 70.6073L170.933 68.7147Z" fill="#004F75"/>
</svg>
